[img]http://img842.imageshack.us/img842/152/contn.jpg[/img]
[code]
Contagion 2011 TS XViD - ILLUMINATI


IMDB: http://www.imdb.com/title/tt1598778/                 RELEASE DATE: 23/09/11                        
SIZE:   1.37 gb                                                                      LENGTH: 1H 41MN
SOURCE: V: DTRG A: Chiefer Sutherland Thanks                 HEIGHT: 384
SUBTITLES: ENGLISH                                                            WIDTH: 720


INFO:
Video
ID                               : 0
Format                           : MPEG-4 Visual
Format profile                   : Advanced Simple@L5
Format settings, BVOP            : 2
Format settings, QPel            : No
Format settings, GMC             : No warppoints
Format settings, Matrix          : Default (H.263)
Muxing mode                      : Packed bitstream
Codec ID                         : XVID
Codec ID/Hint                    : XviD
Duration                         : 1h 41mn
Bit rate                         : 1 917 Kbps
Width                            : 720 pixels
Height                           : 384 pixels
Display aspect ratio             : 1.875
Frame rate                       : 29.970 fps
Color space                      : YUV
Chroma subsampling               : 4:2:0
Bit depth                        : 8 bits
Scan type                        : Progressive
Compression mode                 : Lossy
Bits/(Pixel*Frame)               : 0.231
Stream size                      : 1.36 GiB (93%)
Writing library                  : XviD 64

Audio
ID                               : 1
Format                           : MPEG Audio
Format version                   : Version 1
Format profile                   : Layer 3
Mode                             : Joint stereo
Mode extension                   : MS Stereo
Codec ID                         : 55
Codec ID/Hint                    : MP3
Duration                         : 1h 41mn
Bit rate mode                    : Constant
Bit rate                         : 128 Kbps
Channel(s)                       : 2 channels
Sampling rate                    : 44.1 KHz
Compression mode                 : Lossy
Stream size                      : 92.8 MiB (6%)
Alignment                        : Split accross interleaves
Interleave, duration             : 33 ms (1.00 video frame)


Plot:
A thriller centered on the threat posed by a deadly disease and an international team of doctors contracted by the CDC to deal with the outbreak.

NOTES:
Sharpened up the video cropped and leveled 
subtitles and adjusted the RGB
Audio is very nice LiNE synced and remuxed
[/code]
Screens:
[img]http://img716.imageshack.us/img716/8341/28525434.png[/img]
[img]http://img62.imageshack.us/img62/9426/17849490.png[/img]
[img]http://img651.imageshack.us/img651/6691/60510133.png[/img]
[img]http://img153.imageshack.us/img153/9148/58999064.png[/img]
[img]http://img824.imageshack.us/img824/9995/96105223.png[/img]